<?xml version="1.0" encoding="utf-8"?>
<!-- Svg Vector Icons : http://www.onlinewebfonts.com/icon -->
<!DOCTYPE svg PUBLIC "-//W3C//DTD SVG 1.1//EN" "http://www.w3.org/Graphics/SVG/1.1/DTD/svg11.dtd">
<svg version="1.1" xmlns="http://www.w3.org/2000/svg" xmlns:xlink="http://www.w3.org/1999/xlink" x="0px" y="0px" viewBox="0 0 256 256" enable-background="new 0 0 256 256" xml:space="preserve">
<metadata> Svg Vector Icons : http://www.onlinewebfonts.com/icon </metadata>
<g><g><path fill="#000000" d="M144.8,109.5h68v11.8h-68V109.5L144.8,109.5z"/><path fill="#000000" d="M165.6,196l-0.6-0.6H31.3c-5.3,0-9.5-4.1-9.5-9.4V62.4c0-5.3,4.1-10,9.5-10h190.5c5.3,0,9.5,4.1,9.5,9.4v74.2l0.6,0.6c3,1.8,5.9,4.1,8.3,7.1l2.4,2.9V59.4c0-10-8.3-18.3-18.3-18.3H28.3c-10,0-18.3,8.2-18.3,18.3v129.5c0,10,8.3,18.3,18.3,18.3h144.9l-1.8-2.4C169.1,201.9,167.3,198.9,165.6,196L165.6,196z"/><path fill="#000000" d="M144.8,135.3H165v11.8h-20.1V135.3L144.8,135.3z"/><path fill="#000000" d="M144.8,84.1h68v11.8h-68V84.1L144.8,84.1z"/><path fill="#000000" d="M207,137.1c-21.9,0-39,17.1-39,38.8c0,21.2,17.8,38.8,39,38.8c21.9,0,39-17.1,39-38.8C246,154.2,228.3,137.1,207,137.1L207,137.1z M206.4,199.5c-1.8,1.8-5.3,1.8-7.7,0L182.1,183c-1.8-1.8-1.8-5.3,0-7.1c1.8-1.8,5.3-1.8,7.7,0l13,13l25.4-24.7c1.8-1.8,5.3-1.8,7.7,0c1.8,1.8,1.8,5.3,0,7.1L206.4,199.5L206.4,199.5z"/><path fill="#000000" d="M85.3,144c-16.4,0-29.8-13.5-29.8-30.1s13.4-30.1,29.8-30.1c16.4,0,29.8,13.5,29.8,30.1C115.1,130.5,101.8,144,85.3,144L85.3,144z M85.3,93.7c-11,0-19.9,9.1-19.9,20.2c0,11.1,8.9,20.2,19.9,20.2s19.9-9.1,19.9-20.2C105.2,102.8,96.3,93.7,85.3,93.7L85.3,93.7z"/><path fill="#000000" d="M125.1,158.2c-1.7,0-3.3-0.8-4.3-2.4L104.5,129c-1.4-2.3-0.6-5.4,1.7-6.8c2.3-1.4,5.4-0.7,6.8,1.7l16.3,26.9c1.4,2.3,0.6,5.4-1.7,6.8C126.9,158,126,158.2,125.1,158.2L125.1,158.2z"/><path fill="#000000" d="M125.1,158.2c-0.4,0-0.8,0-1.2-0.1l-16.3-4.1c-2.7-0.7-4.3-3.4-3.6-6c0.7-2.6,3.4-4.3,6-3.6l16.3,4.1c2.6,0.7,4.3,3.4,3.6,6C129.3,156.8,127.3,158.2,125.1,158.2L125.1,158.2z"/><path fill="#000000" d="M104.5,167.9c-0.5,0-1-0.1-1.5-0.2c-2.6-0.8-4.1-3.6-3.3-6.2l4.3-13.8c0.8-2.6,3.6-4,6.2-3.3c2.6,0.8,4.1,3.6,3.3,6.2l-4.3,13.8C108.6,166.5,106.6,167.9,104.5,167.9L104.5,167.9z"/><path fill="#000000" d="M104.5,167.9c-1.7,0-3.4-0.9-4.3-2.5l-13.3-23.1c-1.3-2.4-0.5-5.4,1.9-6.7c2.4-1.4,5.4-0.5,6.8,1.8l13.2,23.1c1.4,2.4,0.5,5.4-1.9,6.7C106.1,167.7,105.3,167.9,104.5,167.9L104.5,167.9z"/><path fill="#000000" d="M45.5,158.2c-0.9,0-1.8-0.2-2.6-0.7c-2.4-1.4-3.1-4.5-1.7-6.8l16.3-26.9c1.4-2.3,4.5-3.1,6.8-1.7c2.4,1.4,3.1,4.5,1.7,6.8l-16.3,26.9C48.9,157.4,47.2,158.2,45.5,158.2L45.5,158.2z"/><path fill="#000000" d="M45.5,158.2c-2.2,0-4.2-1.5-4.8-3.7c-0.7-2.6,0.9-5.3,3.6-6l16.3-4.1c2.7-0.7,5.4,0.9,6,3.6c0.7,2.6-0.9,5.3-3.6,6l-16.3,4.1C46.4,158.2,45.9,158.2,45.5,158.2L45.5,158.2z"/><path fill="#000000" d="M66.2,167.9c-2.1,0-4.1-1.3-4.7-3.5l-4.3-13.8c-0.8-2.6,0.7-5.4,3.3-6.2c2.6-0.8,5.4,0.7,6.2,3.3l4.3,13.8c0.8,2.6-0.6,5.4-3.3,6.2C67.2,167.8,66.6,167.9,66.2,167.9L66.2,167.9z"/><path fill="#000000" d="M66.1,167.9c-0.8,0-1.7-0.2-2.5-0.7c-2.4-1.3-3.2-4.4-1.9-6.7l13.3-23.1c1.4-2.4,4.4-3.2,6.8-1.9c2.4,1.3,3.2,4.4,1.9,6.7l-13.3,23.1C69.6,167,67.9,167.9,66.1,167.9L66.1,167.9z"/></g></g>
</svg>