<?xml version="1.0" encoding="utf-8"?>
<!-- Svg Vector Icons : http://www.onlinewebfonts.com/icon -->
<!DOCTYPE svg PUBLIC "-//W3C//DTD SVG 1.1//EN" "http://www.w3.org/Graphics/SVG/1.1/DTD/svg11.dtd">
<svg version="1.1" xmlns="http://www.w3.org/2000/svg" xmlns:xlink="http://www.w3.org/1999/xlink" x="0px" y="0px" viewBox="0 0 256 256" enable-background="new 0 0 256 256" xml:space="preserve">
<metadata> Svg Vector Icons : http://www.onlinewebfonts.com/icon </metadata>
<g><g><path fill="#000000" d="M175.2,128c2.1,0,4.3,0.2,6.7,0.5l1.9,5.6l1.3,3.8l3.9,1.2c2.6,0.8,5.2,1.9,7.7,3.2l3.6,1.9l3.6-1.8l5.3-2.6c3.5,2.8,6.7,6,9.5,9.5l-2.6,5.3l-1.8,3.6l1.8,3.5c1.3,2.5,2.4,5.1,3.2,7.7l1.2,3.9l3.8,1.3l5.7,1.9c0.3,2.4,0.5,4.6,0.4,6.6v0v0c0,2.1-0.2,4.3-0.5,6.7l-5.7,1.9l-3.9,1.3l-1.2,3.9c-0.8,2.6-1.9,5.2-3.1,7.6l-1.9,3.6l1.8,3.6l2.6,5.3c-1.5,1.9-2.9,3.6-4.4,5.1l0,0l0,0c-1.5,1.5-3.1,3-5.1,4.4l-5.3-2.6l-3.6-1.8l-3.5,1.8c-2.5,1.3-5.1,2.4-7.7,3.2l-3.9,1.2l-1.3,3.8l-1.9,5.7c-2.4,0.3-4.6,0.5-6.7,0.5c-2.1,0-4.3-0.2-6.7-0.5l-1.9-5.7l-1.3-3.9l-3.9-1.2c-2.6-0.8-5.2-1.8-7.6-3.1l-3.6-1.9l-3.6,1.8l-5.3,2.7c-1.9-1.5-3.6-2.9-5.1-4.4c-1.5-1.5-3-3.2-4.4-5.1l2.6-5.3l1.8-3.6l-1.9-3.6c-1.3-2.5-2.4-5-3.2-7.6l-1.2-3.9l-3.8-1.3l-5.7-1.9c-0.3-2.4-0.5-4.6-0.5-6.7c0-2.1,0.2-4.3,0.5-6.7l5.6-1.9l3.8-1.3l1.2-3.9c0.8-2.6,1.9-5.2,3.2-7.7l1.9-3.6l-1.8-3.6l-2.6-5.3c2.8-3.5,6-6.7,9.5-9.5l5.3,2.6l3.6,1.8l3.6-1.9c2.4-1.3,5-2.3,7.7-3.2l3.9-1.2l1.3-3.8l1.9-5.7C170.9,128.1,173.1,128,175.2,128L175.2,128z M175.2,112.3c-3.6,0-7.1,0.3-11.2,1l-3,0.5l-3.8,11.5c-3.5,1.1-6.9,2.5-10.1,4.2l-10.8-5.4l-2.5,1.8c-6.1,4.4-11.4,9.8-15.9,15.8l-1.8,2.5l5.4,10.8c-1.7,3.2-3.1,6.6-4.2,10.1l-11.5,3.8l-0.5,3c-0.6,4.1-1,7.7-1,11.2c0,3.5,0.3,7.1,1,11.2l0.5,3l11.5,3.8c1.1,3.5,2.5,6.9,4.2,10.1l-5.4,10.7l1.8,2.5c2.4,3.3,4.8,6.1,7.2,8.6c2.5,2.5,5.3,4.9,8.6,7.3l2.5,1.8l10.8-5.4c3.2,1.7,6.6,3.1,10.1,4.2l3.8,11.5l3,0.5c4.1,0.6,7.8,1,11.2,1c3.5,0,7.1-0.3,11.2-1l3-0.5l3.8-11.5c3.5-1.1,6.9-2.5,10.1-4.2l10.8,5.4l2.5-1.8c3.3-2.4,6.1-4.8,8.6-7.3c2.5-2.5,4.9-5.3,7.2-8.6l1.8-2.5l-5.4-10.8c1.7-3.2,3.1-6.6,4.2-10.1l11.5-3.8l0.5-3c0.6-4.1,1-7.7,1-11.2c0-3.5-0.3-7.1-0.9-11.2l-0.5-3l-11.5-3.8c-1.1-3.5-2.5-6.9-4.2-10.1l5.4-10.8l-1.8-2.5c-4.4-6.1-9.8-11.4-15.9-15.8l-2.5-1.8l-10.8,5.4c-3.2-1.7-6.6-3.1-10.1-4.2l-3.8-11.4l-3-0.5C182.3,112.6,178.8,112.3,175.2,112.3L175.2,112.3L175.2,112.3z"/><path fill="#000000" d="M175.2,175.2c2.1,0,4.1,0.8,5.6,2.3c1.5,1.5,2.3,3.5,2.3,5.6c0,2.1-0.8,4.1-2.3,5.6c-1.5,1.5-3.5,2.3-5.6,2.3s-4.1-0.8-5.6-2.3c-1.5-1.5-2.3-3.5-2.3-5.6c0-2.1,0.8-4.1,2.3-5.6C171.1,176,173.1,175.2,175.2,175.2L175.2,175.2z M175.2,159.4c-13,0-23.6,10.6-23.6,23.6s10.6,23.6,23.6,23.6s23.6-10.6,23.6-23.6C198.8,170,188.2,159.4,175.2,159.4L175.2,159.4L175.2,159.4z"/><path fill="#000000" d="M120.9,119.1c18.4-11,30.7-31.1,30.7-54.1c0-34.8-28.2-62.9-62.9-62.9C53.9,2.1,25.7,30.3,25.7,65c0,23,12.3,43.1,30.7,54.1C29.1,131.4,10,158.9,10,190.9V246c0,4.3,3.5,7.9,7.9,7.9c4.3,0,7.9-3.5,7.9-7.9v-55.1c0-34.8,28.2-62.9,62.9-62.9c11.9,0,23.1,3.3,32.6,9.1H146C139,129.5,130.4,123.4,120.9,119.1z M41.5,65c0-26.1,21.1-47.2,47.2-47.2c26.1,0,47.2,21.1,47.2,47.2c0,26.1-21.1,47.2-47.2,47.2C62.6,112.3,41.5,91.1,41.5,65z"/></g></g>
</svg>